<svg xmlns:xlink="http://www.w3.org/1999/xlink" xmlns="http://www.w3.org/2000/svg" id="dhl_icons" width="48" height="48" viewBox="0 0 48 48"><path d="M35.03,27.969h0l1.4422,1.4423A2.0143,2.0143,0,1,1,33.6232,32.26a2.0143,2.0143,0,1,1-2.8487,2.8486,2.0143,2.0143,0,1,1-2.8487,2.8487,2.0143,2.0143,0,0,1-2.8486,2.8486l-1.5286-1.5286a4.0313,4.0313,0,0,0-1.8074-6.7421,4.0317,4.0317,0,0,0-2.8459-2.8479,4.0412,4.0412,0,0,0-2.8486-2.8487,4.03,4.03,0,0,0-6.7415-1.8047L3,18.7288,14.3947,7.3341,17.4,10.3394A2.255,2.255,0,0,0,18.9948,11h1.6685l-4.15,4.15a4.03,4.03,0,0,0,.5057,6.127,3.9,3.9,0,0,0,2.2946.7336,4.2377,4.2377,0,0,0,2.9733-1.24l1.62-1.62a1.6294,1.6294,0,0,1,2.304,0ZM20.7,34.4143a2.0077,2.0077,0,0,0-1.4243.59,2.0144,2.0144,0,0,0-2.8487-2.8488,2.0143,2.0143,0,1,0-2.8487-2.8486A2.0143,2.0143,0,1,0,10.73,26.4584L8.5931,28.5948a2.0143,2.0143,0,0,0,2.8486,2.8487A2.0143,2.0143,0,1,0,14.29,34.2922a2.0143,2.0143,0,0,0,2.8487,2.8487A2.0143,2.0143,0,1,0,19.9877,39.99l2.1366-2.1365A2.0144,2.0144,0,0,0,20.7,34.4143ZM29.2094,11H25.0212a3.6438,3.6438,0,0,0-2.5763,1.0671l-4.5073,4.5074a2.0156,2.0156,0,0,0,.2586,3.0682,1.8983,1.8983,0,0,0,1.1174.3538,2.2123,2.2123,0,0,0,1.5489-.65l1.62-1.6205a3.6435,3.6435,0,0,1,5.1526,0l8.8184,8.8184,3.0454-3.0454h0L45,17.9988,33.6053,6.604Z" fill="#d40511"/></svg>